<?xml version="1.0" standalone="no"?><!DOCTYPE svg PUBLIC "-//W3C//DTD SVG 1.1//EN" "http://www.w3.org/Graphics/SVG/1.1/DTD/svg11.dtd"><svg t="1677393461060" class="icon" viewBox="0 0 1024 1024" version="1.1" xmlns="http://www.w3.org/2000/svg" p-id="3059" xmlns:xlink="http://www.w3.org/1999/xlink" width="200" height="200"><path d="M511.7 956.6c-30 0-51.1-39.5-63.5-72.7-14.5-38.5-23.4-85.3-23.4-122.2 0-47.9 39-86.9 86.9-86.9 47.9 0 86.9 39 86.9 86.9 0 36.8-9 83.6-23.4 122.2-12.4 33.1-33.6 72.7-63.5 72.7z m0-251.8c-31.4 0-56.9 25.5-56.9 56.9 0 33.4 8.2 76.2 21.5 111.6 14.5 38.8 29.4 53.2 35.4 53.2s20.9-14.4 35.4-53.2c13.3-35.4 21.5-78.2 21.5-111.6 0-31.3-25.5-56.9-56.9-56.9z m284.2 132.1c-20.5 0-44.7-8.5-64.8-17.6-37.5-17-76.9-43.8-102.9-69.8-5.1-5-9-10.8-12.3-18.1-20.2-34.4-15.1-77.3 12.3-104.8 27.5-27.5 70.4-32.5 104.8-12.3 7.1 3.2 13.1 7.3 18.1 12.3 26 26.1 52.8 65.5 69.8 103 14.7 32.2 27.7 75.1 6.5 96.3-8 7.8-19.1 11-31.5 11z m-108-205.1c-14.2 0-27.9 5.4-38.5 16-18.2 18.2-21.1 45.9-7.3 68.9l0.5 0.8 0.4 0.9c1.9 4.3 3.9 7.3 6.4 9.9 23.7 23.7 59.7 48.1 94.1 63.7 37.7 17.1 58.4 16.8 62.7 12.6 4.2-4.2 4.5-25-12.6-62.6-15.6-34.4-40-70.5-63.7-94.1-2.6-2.6-5.7-4.6-9.9-6.5l-0.9-0.4-0.8-0.5c-9.6-5.9-20.1-8.7-30.4-8.7zM227.5 836.9c-12.4 0-23.5-3.1-31.5-11.1-21.2-21.2-8.2-64 6.5-96.3 17-37.5 43.8-76.9 69.8-102.9 5-5 11-9 18.1-12.3 34.4-20.2 77.3-15.1 104.8 12.3 27.5 27.5 32.5 70.4 12.3 104.8-3.2 7.1-7.3 13.1-12.3 18.1-26 26-65.5 52.8-102.9 69.8-20.1 9.1-44.3 17.6-64.8 17.6z m107.9-205.1c-10.3 0-20.8 2.8-30.4 8.7l-0.8 0.5-0.9 0.4c-4.2 1.9-7.3 3.9-9.9 6.5-23.7 23.6-48.1 59.7-63.7 94.1-17.1 37.7-16.8 58.4-12.6 62.6 4.2 4.2 25 4.5 62.6-12.6 34.4-15.6 70.5-40.1 94.1-63.7 2.6-2.6 4.6-5.7 6.5-9.9l0.4-0.9 0.5-0.8c13.8-23 10.9-50.7-7.3-68.9-10.5-10.6-24.3-16-38.5-16z m428-34.9c-47.9 0-86.9-39-86.9-86.9 0-47.9 39-86.9 86.9-86.9 36.8 0 83.6 9 122.1 23.4 33.2 12.4 72.7 33.5 72.7 63.5 0 29.9-39.5 51.1-72.7 63.5-38.5 14.5-85.3 23.4-122.1 23.4z m0-143.8c-31.4 0-56.9 25.5-56.9 56.9s25.5 56.9 56.9 56.9c33.4 0 76.2-8.2 111.6-21.5 38.8-14.5 53.2-29.4 53.2-35.4s-14.4-20.9-53.2-35.4c-35.4-13.3-78.1-21.5-111.6-21.5zM260 596.9c-36.8 0-83.6-9-122.1-23.4-33.2-12.4-72.7-33.5-72.7-63.5s39.5-51.1 72.7-63.5c38.5-14.5 85.3-23.4 122.1-23.4 47.9 0 86.9 39 86.9 86.9 0 47.9-39 86.9-86.9 86.9z m0-143.8c-33.4 0-76.2 8.2-111.6 21.5-38.8 14.5-53.2 29.4-53.2 35.4s14.4 20.9 53.2 35.4c35.4 13.3 78.2 21.5 111.6 21.5 31.4 0 56.9-25.5 56.9-56.9s-25.6-56.9-56.9-56.9z m75.2-35c-15.3 0-30.8-4-44.9-12.3-7.3-3.3-13.1-7.3-18.1-12.3-26-26-52.8-65.5-69.8-102.9-14.6-32.2-27.7-75.1-6.5-96.3 21.2-21.2 64-8.2 96.3 6.5 37.5 17 76.9 43.8 102.9 69.8 5 5 9.1 10.9 12.3 18.1 20.1 34.4 15.1 77.3-12.3 104.8-16.2 16.2-37.8 24.6-59.9 24.6z m-108-205c-5.3 0-8.6 1-10 2.4-4.2 4.2-4.6 25 12.6 62.7 15.6 34.4 40 70.5 63.7 94.1 2.6 2.6 5.7 4.6 9.9 6.5l0.8 0.4 0.8 0.5c23 13.8 50.7 10.9 68.9-7.3 18.2-18.2 21.2-45.9 7.3-68.9l-0.5-0.8-0.4-0.9c-1.9-4.2-3.9-7.3-6.5-9.9-23.6-23.6-59.7-48.1-94.1-63.7-24.8-11.4-42.3-15.1-52.5-15.1z m460.9 205c-22.1 0-43.7-8.4-59.9-24.6-27.5-27.5-32.5-70.4-12.3-104.8 3.3-7.3 7.3-13.1 12.3-18.2 26-26 65.4-52.7 102.9-69.8 32.2-14.7 75.1-27.7 96.3-6.5 21.2 21.2 8.2 64.1-6.5 96.3-17 37.5-43.8 76.9-69.8 102.9-5.1 5.1-10.9 9-18.1 12.3-14 8.3-29.6 12.4-44.9 12.4z m108.1-205c-10.2 0-27.7 3.7-52.6 15-34.4 15.6-70.5 40.1-94.1 63.7-2.6 2.6-4.6 5.6-6.5 9.9l-0.4 0.9-0.5 0.8c-13.8 23-10.9 50.7 7.3 68.9 18.2 18.2 45.9 21.2 69 7.3l0.8-0.5 0.8-0.4c4.3-1.9 7.3-3.9 10-6.5 23.6-23.6 48-59.7 63.7-94.1 17.1-37.7 16.8-58.4 12.6-62.7-1.5-1.4-4.9-2.3-10.1-2.3zM511.7 345.2c-47.9 0-86.9-39-86.9-86.9 0-36.8 9-83.6 23.4-122.1 12.4-33.2 33.5-72.7 63.5-72.7 29.9 0 51.1 39.5 63.5 72.7 14.5 38.5 23.4 85.3 23.4 122.1 0 47.9-39 86.9-86.9 86.9z m0-251.7c-6 0-20.9 14.4-35.4 53.2-13.3 35.4-21.5 78.2-21.5 111.6 0 31.4 25.5 56.9 56.9 56.9s56.9-25.5 56.9-56.9c0-33.4-8.2-76.2-21.5-111.6-14.5-38.8-29.4-53.2-35.4-53.2z" fill="#4EB53A" p-id="3060"></path></svg>